<svg preserveAspectRatio="none" overflow="visible" style="display: block;" width="17" height="20" viewBox="0 0 17 20" fill="none" xmlns="http://www.w3.org/2000/svg">
<g id="Frame">
<path id="Vector" opacity="0.3" fill-rule="evenodd" clip-rule="evenodd" d="M6.32362 4.58253C6.22847 4.58696 6.13968 4.59246 6.05602 4.5993C5.65388 4.63215 5.47953 4.68961 5.37496 4.7429C5.06666 4.89998 4.816 5.15064 4.65891 5.45894C4.60563 5.56351 4.54817 5.73786 4.51531 6.14001C4.48128 6.55649 4.48033 7.1 4.48033 7.92321V15.1325C4.48033 15.9557 4.48128 16.4992 4.51531 16.9157C4.54817 17.3179 4.60563 17.4922 4.65891 17.5968C4.816 17.9051 5.06666 18.1558 5.37496 18.3128C5.47953 18.3661 5.65388 18.4236 6.05602 18.4564C6.47251 18.4905 7.01601 18.4914 7.83922 18.4914H8.90423C9.72744 18.4914 10.2709 18.4905 10.6874 18.4564C11.0896 18.4236 11.2639 18.3661 11.3685 18.3128C11.6768 18.1558 11.9275 17.9051 12.0845 17.5968C12.1378 17.4922 12.1953 17.3179 12.2281 16.9157C12.2622 16.4992 12.2631 15.9557 12.2631 15.1325V7.9232C12.2631 7.09999 12.2622 6.55649 12.2281 6.14001C12.1953 5.73786 12.1378 5.56351 12.0845 5.45894C11.9275 5.15064 11.6768 4.89998 11.3685 4.7429C11.2639 4.68961 11.0896 4.63215 10.6874 4.5993C10.6038 4.59246 10.515 4.58696 10.4198 4.58253V5.07634C10.4198 5.52879 10.053 5.89558 9.60059 5.89558H7.14286C6.69041 5.89558 6.32362 5.52879 6.32362 5.07634V4.58253ZM3.25146 7.92321C3.25146 6.31734 3.25146 5.51441 3.56399 4.90105C3.83889 4.36152 4.27754 3.92287 4.81706 3.64797C5.43042 3.33545 6.23336 3.33545 7.83922 3.33545H8.90424C10.5101 3.33545 11.313 3.33545 11.9264 3.64797C12.4659 3.92287 12.9046 4.36152 13.1795 4.90105C13.492 5.51441 13.492 6.31734 13.492 7.9232V15.1325C13.492 16.7384 13.492 17.5413 13.1795 18.1547C12.9046 18.6942 12.4659 19.1329 11.9264 19.4078C11.313 19.7203 10.5101 19.7203 8.90423 19.7203H7.83922C6.23335 19.7203 5.43042 19.7203 4.81706 19.4078C4.27754 19.1329 3.83889 18.6942 3.56399 18.1547C3.25146 17.5413 3.25146 16.7384 3.25146 15.1325V7.92321Z" fill="black"/>
<path id="Vector_2" opacity="0.2" d="M9.6005 16.4434H7.14277C6.91654 16.4434 6.73315 16.6268 6.73315 16.853C6.73315 17.0792 6.91654 17.2626 7.14277 17.2626H9.6005C9.82673 17.2626 10.0101 17.0792 10.0101 16.853C10.0101 16.6268 9.82673 16.4434 9.6005 16.4434Z" fill="black"/>
<path id="Vector_3" d="M12.4677 7.43147C14.2775 7.43147 15.7447 5.96432 15.7447 4.1545C15.7447 2.34468 14.2775 0.87753 12.4677 0.87753C10.6579 0.87753 9.19073 2.34468 9.19073 4.1545C9.19073 5.96432 10.6579 7.43147 12.4677 7.43147Z" fill="#0055FF" stroke="white" stroke-width="1.63848"/>
</g>
</svg>
